<svg xmlns="http://www.w3.org/2000/svg" xmlns:xlink="http://www.w3.org/1999/xlink" width="500" zoomAndPan="magnify" viewBox="0 0 375 374.999991" height="500" preserveAspectRatio="xMidYMid meet" version="1.2"><defs><clipPath id="cb85c386c2"><path d="M 11.21875 37.5 L 79 37.5 L 79 105 L 11.21875 105 Z M 11.21875 37.5 "/></clipPath><clipPath id="5deb80d43c"><path d="M 294 37.5 L 362 37.5 L 362 105 L 294 105 Z M 294 37.5 "/></clipPath><clipPath id="da988c8275"><path d="M 294 253 L 362 253 L 362 320.25 L 294 320.25 Z M 294 253 "/></clipPath><clipPath id="524fbca699"><path d="M 11.21875 253 L 79 253 L 79 320.25 L 11.21875 320.25 Z M 11.21875 253 "/></clipPath></defs><g id="e76c89e62c"><g clip-rule="nonzero" clip-path="url(#cb85c386c2)"><path style=" stroke:none;fill-rule:nonzero;fill:#ffffff;fill-opacity:1;" d="M 26.25 104.734375 L 11.25 104.734375 L 11.25 37.53125 L 78.453125 37.53125 L 78.453125 52.53125 L 26.25 52.53125 Z M 26.25 104.734375 "/></g><g clip-rule="nonzero" clip-path="url(#5deb80d43c)"><path style=" stroke:none;fill-rule:nonzero;fill:#ffffff;fill-opacity:1;" d="M 361.96875 104.734375 L 346.96875 104.734375 L 346.96875 52.53125 L 294.769531 52.53125 L 294.769531 37.523438 L 361.96875 37.523438 Z M 361.96875 104.734375 "/></g><g clip-rule="nonzero" clip-path="url(#da988c8275)"><path style=" stroke:none;fill-rule:nonzero;fill:#ffffff;fill-opacity:1;" d="M 361.96875 320.21875 L 294.761719 320.21875 L 294.761719 305.21875 L 346.96875 305.21875 L 346.96875 253.015625 L 361.96875 253.015625 Z M 361.96875 320.21875 "/></g><g clip-rule="nonzero" clip-path="url(#524fbca699)"><path style=" stroke:none;fill-rule:nonzero;fill:#ffffff;fill-opacity:1;" d="M 78.445312 320.226562 L 11.25 320.226562 L 11.25 253.015625 L 26.25 253.015625 L 26.25 305.21875 L 78.445312 305.21875 Z M 78.445312 320.226562 "/></g><path style=" stroke:none;fill-rule:nonzero;fill:#ffffff;fill-opacity:1;" d="M 64.546875 98.65625 L 99.601562 98.65625 L 99.601562 259.085938 L 64.546875 259.085938 Z M 64.546875 98.65625 "/><path style=" stroke:none;fill-rule:nonzero;fill:#ffffff;fill-opacity:1;" d="M 179.230469 98.65625 L 208.6875 98.65625 L 208.6875 259.085938 L 179.230469 259.085938 Z M 179.230469 98.65625 "/><path style=" stroke:none;fill-rule:nonzero;fill:#ffffff;fill-opacity:1;" d="M 273.617188 98.65625 L 308.671875 98.65625 L 308.671875 259.085938 L 273.617188 259.085938 Z M 273.617188 98.65625 "/><path style=" stroke:none;fill-rule:nonzero;fill:#ffffff;fill-opacity:1;" d="M 116.140625 98.65625 L 135.414062 98.65625 L 135.414062 259.085938 L 116.140625 259.085938 Z M 116.140625 98.65625 "/><path style=" stroke:none;fill-rule:nonzero;fill:#ffffff;fill-opacity:1;" d="M 217.992188 98.65625 L 233.054688 98.65625 L 233.054688 259.085938 L 217.992188 259.085938 Z M 217.992188 98.65625 "/><path style=" stroke:none;fill-rule:nonzero;fill:#ffffff;fill-opacity:1;" d="M 145.691406 98.65625 L 157.074219 98.65625 L 157.074219 259.085938 L 145.691406 259.085938 Z M 145.691406 98.65625 "/><path style=" stroke:none;fill-rule:nonzero;fill:#ffffff;fill-opacity:1;" d="M 253.109375 98.65625 L 264.496094 98.65625 L 264.496094 259.085938 L 253.109375 259.085938 Z M 253.109375 98.65625 "/><g style="fill:#ffffff;fill-opacity:1;"><g transform="translate(186.672561, 329.124976)"><path style="stroke:none" d="M 0 0 L 0.203125 -0.265625 L 0.03125 -0.515625 L 0.09375 -0.515625 L 0.25 -0.296875 L 0.390625 -0.515625 L 0.46875 -0.515625 L 0.28125 -0.265625 L 0.484375 0 L 0.40625 0 L 0.25 -0.21875 L 0.078125 0 Z M 0 0 "/></g></g><g style="fill:#ffffff;fill-opacity:1;"><g transform="translate(187.161563, 329.124976)"><path style="stroke:none" d="M 0 0 L 0.203125 -0.265625 L 0.03125 -0.515625 L 0.09375 -0.515625 L 0.25 -0.296875 L 0.390625 -0.515625 L 0.46875 -0.515625 L 0.28125 -0.265625 L 0.484375 0 L 0.40625 0 L 0.25 -0.21875 L 0.078125 0 Z M 0 0 "/></g></g><g style="fill:#ffffff;fill-opacity:1;"><g transform="translate(187.650566, 329.124976)"><path style="stroke:none" d="M 0 0 L 0.203125 -0.265625 L 0.03125 -0.515625 L 0.09375 -0.515625 L 0.25 -0.296875 L 0.390625 -0.515625 L 0.46875 -0.515625 L 0.28125 -0.265625 L 0.484375 0 L 0.40625 0 L 0.25 -0.21875 L 0.078125 0 Z M 0 0 "/></g></g></g></svg>